<svg xmlns="http://www.w3.org/2000/svg" xmlns:xlink="http://www.w3.org/1999/xlink" width="98" height="90" viewBox="0 0 98 90"><defs><path id="75i5a" d="M985.557 683.023c3.52 0 6.394 2.432 7.024 5.757h.185l23.08 25.963h-11.55l-15.935-17.937c-.877.364-1.803.635-2.804.635-.986 0-1.93-.27-2.788-.635l-15.953 17.937h-11.532l23.064-25.963h.183c.65-3.325 3.522-5.757 7.026-5.757zm-41.803 37.48h86.51a5.75 5.75 0 0 1 5.757 5.775v2.883c0 3.043-2.337 5.437-5.306 5.678l-9.112 31.806c-2.889 5.771-5.757 5.771-8.646 5.771h-51.916c-2.869 0-5.757 0-8.644-5.771l-9.094-31.806c-2.989-.241-5.324-2.635-5.324-5.678v-2.883a5.764 5.764 0 0 1 5.775-5.775zm16.22 14.419c-3.198 0-5.28 2.407-4.606 5.406l4.055 17.94c.678 3.014 3.832 5.49 7.025 5.49h1.452c3.198 0 5.268-2.476 4.59-5.49l-4.055-17.94c-.674-2.999-3.828-5.406-7.026-5.406zm27.035 0a5.764 5.764 0 0 0-5.775 5.774v17.302a5.752 5.752 0 0 0 5.775 5.76 5.739 5.739 0 0 0 5.757-5.76v-17.302a5.75 5.75 0 0 0-5.757-5.774zm25.582 0c-3.198 0-6.348 2.407-7.026 5.406l-4.055 17.94c-.674 3.014 1.396 5.49 4.588 5.49h1.453c3.198 0 6.348-2.476 7.026-5.49l4.055-17.94c.674-2.999-1.394-5.406-4.589-5.406z"/></defs><g><g transform="translate(-938 -683)"><use fill="#fff" xlink:href="#75i5a"/></g></g></svg>