<svg xmlns="http://www.w3.org/2000/svg" xmlns:xlink="http://www.w3.org/1999/xlink" width="95" height="81" viewBox="0 0 95 81"><defs><path id="f1lga" d="M602.154 687.973h72.655a11.157 11.157 0 0 1 11.174 11.187v41.915c0 6.196-4.98 11.177-11.174 11.177h-25.146v8.376h11.174a2.8 2.8 0 0 1 2.797 2.797v5.593h-50.306v-5.593a2.8 2.8 0 0 1 2.797-2.797H627.3v-8.376h-25.146a11.147 11.147 0 0 1-11.174-11.177V699.16c0-6.193 4.98-11.187 11.174-11.187zm2.797 11.187a2.79 2.79 0 0 0-2.797 2.785v36.336a2.8 2.8 0 0 0 2.797 2.794h67.06a2.79 2.79 0 0 0 2.798-2.794v-36.336a2.782 2.782 0 0 0-2.798-2.785z"/></defs><g><g transform="translate(-591 -688)"><use fill="#fff" xlink:href="#f1lga"/></g></g></svg>